<?xml version="1.0" encoding="utf-8"?>
<!-- Generator: Adobe Illustrator 24.1.0, SVG Export Plug-In . SVG Version: 6.00 Build 0)  -->
<svg fill-opacity="0.3" version="1.1" id="Layer_1" xmlns="http://www.w3.org/2000/svg" xmlns:xlink="http://www.w3.org/1999/xlink" x="0px" y="0px"
	 viewBox="0 0 504 329.2" style="enable-background:new 0 0 504 329.2;" xml:space="preserve">
<style type="text/css">
	.st0{stroke:#FFFFFF;stroke-miterlimit:10;}
</style>
<path d="M252,320.9c-115,0-208.7-31.7-208.7-70.5S137,180,252,180s208.7,31.7,208.7,70.5S367,320.9,252,320.9 M252,171.7
	c-139.4,0-252,35-252,78.8s112.6,78.8,252,78.8s252-35.4,252-78.8S391.4,171.7,252,171.7"/>
<path d="M263,291.9h-27.6c-8.7,0-13.4-1.9-13.4-5.3v-30.1c0-1.9,1.6-2.6,5.5-2.6H263c22.3,0,40.5,8.6,40.9,19.2
	c0.3,10.3-16.9,18.7-38.4,18.9C264.7,291.9,263.9,291.9,263,291.9 M222.1,215c0-3.4,4.7-5.3,13.4-5.3h18.1
	c18.7-0.4,34.6,6.6,35.4,15.5v0.7c-0.3,9.2-16.1,16.6-35.4,16.6h-26c-3.9,0-5.5-0.8-5.5-2.6V215z M333.1,248.6c-5.5-1.1-5.5-1.5,0-3
	c14.1-4.2,22.5-11.6,22-19.6c0-14.7-40.9-29.4-106.3-29.4c-37.8-0.1-74.5,5.7-104.7,16.6c-5.5,2.2-4.7,3.4-3.1,4.2l9.5,5.3
	c3.1,1.5,4.7,1.1,6.3,0.4c7.1-2.6,7.9-1.1,7.9,1.9v52c0,3-0.8,4.5-7.9,1.9c-1.6-0.8-3.1-1.1-6.3,0.4l-10.2,5.6
	c-1.6,1.1-3.1,2.2,3.2,4.2c31.6,10.3,68.8,16,107.1,16.2c73.2,0,118.9-14.7,118.9-34.3C370.1,257.6,347.3,251.2,333.1,248.6"/>
<polygon class="st0" points="0,41.9 0,0 41.9,0 21,21 "/>
</svg>
