<?xml version="1.0" encoding="utf-8"?>
<!-- Generator: Adobe Illustrator 23.0.1, SVG Export Plug-In . SVG Version: 6.00 Build 0)  -->
<svg version="1.1" id="Layer_1" xmlns="http://www.w3.org/2000/svg" xmlns:xlink="http://www.w3.org/1999/xlink" x="0px" y="0px"
	 viewBox="0 0 30 30" style="enable-background:new 0 0 30 30;" xml:space="preserve">
<path d="M15,25.7c-2,0-3.9-0.5-5.7-1.5s-3.1-2.4-4.1-4.1c-1-1.7-1.5-3.6-1.5-5.6c0-1.5,0.3-3,0.9-4.4S6,7.5,7,6.5s2.2-1.8,3.6-2.4
	s2.9-0.9,4.4-0.9c1.5,0,3,0.3,4.4,0.9S22,5.5,23,6.5s1.8,2.2,2.4,3.6s0.9,2.8,0.9,4.4s-0.3,3-0.9,4.4c-0.6,1.4-1.4,2.6-2.4,3.6
	s-2.2,1.8-3.6,2.4S16.6,25.7,15,25.7z M15,23.3c2.4,0,4.4-0.9,6.2-2.6c1.7-1.7,2.6-3.8,2.6-6.2c0-1.6-0.4-3.1-1.2-4.4
	s-1.9-2.4-3.2-3.2S16.6,5.7,15,5.7S12,6.1,10.6,6.9s-2.4,1.9-3.2,3.2s-1.2,2.8-1.2,4.4s0.4,3.1,1.2,4.4c0.8,1.3,1.9,2.4,3.2,3.2
	S13.4,23.3,15,23.3z M20.9,18.4L7.8,14.6c-0.1,0-0.2-0.1-0.2-0.1s0.1-0.1,0.2-0.1l13.1-3.7c0.1,0,0.2,0,0.2,0s0.1,0.1,0,0.2
	l-1.3,3.5c0,0.1,0,0.2,0,0.3l1.3,3.5c0.1,0.1,0.1,0.2,0,0.2C21.1,18.3,21,18.4,20.9,18.4z"/>
</svg>
