<?xml version="1.0" encoding="utf-8"?>
<!-- Generator: Adobe Illustrator 23.0.1, SVG Export Plug-In . SVG Version: 6.00 Build 0)  -->
<svg version="1.1" id="Layer_1" xmlns="http://www.w3.org/2000/svg" xmlns:xlink="http://www.w3.org/1999/xlink" x="0px" y="0px"
	 viewBox="0 0 30 30" style="enable-background:new 0 0 30 30;" xml:space="preserve">
<path d="M15,3.2c2,0,3.9,0.5,5.7,1.5s3.1,2.4,4.1,4.1c1,1.7,1.5,3.6,1.5,5.6c0,1.5-0.3,3-0.9,4.4S24,21.4,23,22.4s-2.2,1.8-3.6,2.4
	c-1.4,0.6-2.9,0.9-4.4,0.9c-1.5,0-3-0.3-4.4-0.9S8,23.4,7,22.4s-1.8-2.2-2.4-3.6S3.7,16,3.7,14.5s0.3-3,0.9-4.4S6,7.5,7,6.5
	s2.2-1.8,3.6-2.4S13.4,3.2,15,3.2z M15,5.7c-2.4,0-4.4,0.9-6.2,2.6c-1.7,1.7-2.6,3.8-2.6,6.2c0,1.6,0.4,3.1,1.2,4.4s1.9,2.4,3.2,3.2
	s2.8,1.2,4.4,1.2s3-0.4,4.4-1.2c1.3-0.8,2.4-1.9,3.2-3.2c0.8-1.3,1.2-2.8,1.2-4.4s-0.4-3.1-1.2-4.4c-0.8-1.3-1.9-2.4-3.2-3.2
	S16.6,5.7,15,5.7z M9.1,10.6l13.1,3.8c0.1,0,0.2,0.1,0.2,0.1s-0.1,0.1-0.2,0.1L9.1,18.4c-0.1,0-0.2,0-0.2,0s-0.1-0.1,0-0.2l1.3-3.5
	c0-0.1,0-0.2,0-0.3l-1.3-3.5c-0.1-0.1-0.1-0.2,0-0.2S9,10.6,9.1,10.6z"/>
</svg>
